# xmcd CD database file
# Generated: Wed Jul 4 20:26:29 2001 by KSCD
# 
# Track frame offsets:
#       150
#       9955
#       22142
#       37995
#       47380
#       54067
#       68337
#       79280
#       91662
#       103117
#       115530
#       125817
#       144080
#
# Disc length: 2061 seconds
#
# Revision: 2
# Processed by: cddbd v1.4b41PL3 Copyright (c) Steve Scherf et al.
# Submitted via: Kscd 1.3.0
#
DISCID=90080b0d
DTITLE=Alan Bibey - In the Blue Room
DYEAR=1900
DGENRE=
TTITLE0=In the Blue Room
TTITLE1=Save Your Heart
TTITLE2=Evening Prayer Blues
TTITLE3=I'll Be Alright Tomorrow
TTITLE4=Wild Fiddler's Rag
TTITLE5=Lee's Reel
TTITLE6=Country Fool
TTITLE7=Stumptowne
TTITLE8=Close By
TTITLE9=Amanda Lena
TTITLE10=Busy Fingers
TTITLE11=What I Am
TTITLE12=Sure-Fire
EXTD=
EXTT0=
EXTT1=
EXTT2=
EXTT3=
EXTT4=
EXTT5=
EXTT6=
EXTT7=
EXTT8=
EXTT9=
EXTT10=
EXTT11=
EXTT12=
PLAYORDER=
